<svg xmlns="http://www.w3.org/2000/svg" viewBox="0 0 512 512" width="512" height="512">
  <rect width="512" height="512" rx="96" fill="#111418"/>
  <!-- Yunque estilizado (la fragua) en naranja -->
  <path fill="#e2823a" d="M120 196h200c0 34-26 52-58 56l10 34h44c8 0 14 6 14 14v6c0 8-6 14-14 14H196c-8 0-14-6-14-14v-6c0-8 6-14 14-14h44l10-34c-40-4-68-26-72-56z"/>
  <rect x="188" y="330" width="136" height="26" rx="8" fill="#e2823a"/>
  <rect x="150" y="356" width="212" height="34" rx="12" fill="#e2823a"/>
  <!-- Chispa -->
  <circle cx="372" cy="150" r="14" fill="#f4b06a"/>
  <circle cx="410" cy="188" r="8" fill="#f4b06a"/>
</svg>
